<!-- icon666.com - MILLIONS OF FREE VECTOR ICONS --><svg id="Layer_1" enable-background="new 0 0 512.105 512.105" viewBox="0 0 512.105 512.105" xmlns="http://www.w3.org/2000/svg"><g><path d="m305.749 0h-15v168.484h88.84v-94.643c-.001-40.716-33.125-73.841-73.84-73.841z" fill="#b46615"></path><path d="m305.749 0h-15v168.484h88.84v-94.643c-.001-40.716-33.125-73.841-73.84-73.841z" fill="#874208"></path><path d="m206.357 0c-40.716 0-73.84 33.125-73.84 73.841v94.644h88.84v-168.485z" fill="#b46615"></path><path d="m395.424 273.818-6.705-87.937c-2.045-26.822-14.038-51.663-33.77-69.947-7.536-6.984-15.942-12.764-24.951-17.248l-73.873 73.873-73.921-73.921c-9.046 4.49-17.486 10.287-25.05 17.296-19.731 18.284-31.725 43.125-33.77 69.947l-6.705 87.937c-30.029 21.854-47.734 56.396-47.734 93.864 0 25.226 7.953 49.219 23 69.387 14.326 19.201 33.777 33.274 56.351 40.797 35.533 22.721 71.776 34.239 107.755 34.239s72.222-11.518 107.754-34.239c22.576-7.522 42.025-21.595 56.353-40.797 15.047-20.168 23-44.161 23-69.387.001-37.467-17.704-72.01-47.734-93.864z" fill="#ffb655"></path><path d="m395.424 273.818-6.705-87.937c-2.045-26.822-14.038-51.663-33.77-69.947-7.536-6.984-15.942-12.764-24.951-17.248l-73.873 73.873v339.545c35.954-.016 72.172-11.532 107.68-34.239 22.576-7.522 42.025-21.595 56.353-40.797 15.047-20.168 23-44.161 23-69.387.001-37.466-17.704-72.009-47.734-93.863z" fill="#ff7b49"></path><g><path d="m306.574 228.638h30v30.002h-30z" fill="#874208"></path></g><g><path d="m175.525 228.638h30v30.002h-30z" fill="#874208"></path></g><path d="m218.427 397.49 6.952 55.197h61.329l7.099-55.127-37.758-16.93z" fill="#fff9e1"></path><path d="m256.126 452.687h30.582l7.1-55.127-37.682-16.896z" fill="#ffdea8"></path><g><path d="" fill="none" stroke="#000" stroke-miterlimit="10" stroke-width="30"></path></g><g><path d="" fill="none" stroke="#000" stroke-miterlimit="10" stroke-width="30"></path></g><path d="m355.066 116.045c-.039-.037-.077-.074-.117-.111-19.73-18.284-45.412-28.354-72.313-28.354h-53.169c-26.9 0-52.582 10.069-72.313 28.354-.014.013-.027.026-.041.039l99.012 99.012z" fill="#874208"></path><path d="m354.95 115.935c-19.73-18.284-45.412-28.354-72.313-28.354h-26.511v127.404l98.94-98.94c-.039-.036-.077-.074-.116-.11z" fill="#682a00"></path><g><path d="m322.811 411.735h-25.108c-16.454 0-31.294-7.052-41.653-18.291-10.359 11.239-25.199 18.291-41.653 18.291h-25.108v-30h25.108c14.696 0 26.653-11.957 26.653-26.653v-5.558h30v5.558c0 14.696 11.957 26.653 26.653 26.653h25.108z" fill="#b46615"></path></g><path d="m271.049 355.082v-5.558h-14.923v44c10.356 11.192 25.162 18.211 41.576 18.211h25.108v-30h-25.108c-14.696 0-26.653-11.957-26.653-26.653z" fill="#874208"></path><path d="m256.049 286.469c-23.74 0-43.055 16.443-43.055 36.656 0 10.148 6.739 19.737 20.604 29.311 8.187 5.655 16.309 9.528 16.651 9.69l5.8 2.751 5.8-2.751c.342-.162 8.464-4.035 16.652-9.69 13.864-9.575 20.604-19.162 20.604-29.311 0-20.213-19.314-36.656-43.056-36.656z" fill="#874208"></path><g><path d="m306.574 228.638h30v30.002h-30z" fill="#682a00"></path></g><g><path d="" fill="none" stroke="#000" stroke-miterlimit="10" stroke-width="30"></path></g><g><path d="" fill="none" stroke="#000" stroke-miterlimit="10" stroke-width="30"></path></g><path d="m278.502 352.436c13.864-9.575 20.604-19.162 20.604-29.311 0-20.191-19.273-36.619-42.979-36.654v78.37l5.723-2.714c.341-.163 8.464-4.036 16.652-9.691z" fill="#682a00"></path></g></svg>